<svg aria-hidden="true" style="width:0;height:0;position:absolute;overflow:hidden" xmlns="http://www.w3.org/2000/svg"><defs><symbol id="icon-sun" viewBox="0 0 32 32"><path d="M30.667 14.667h-5.44a9.192 9.192 0 0 0-.594-2.204l.022.062L29.358 9.8a1.334 1.334 0 0 0-.632-2.507c-.26 0-.502.074-.707.203l.006-.003-4.707 2.729a9.495 9.495 0 0 0-1.513-1.519l-.019-.015 2.728-4.708a1.333 1.333 0 0 0-2.305-1.339l-.003.006-2.729 4.7a8.875 8.875 0 0 0-2.093-.566l-.05-.006v-5.44a1.333 1.333 0 0 0-2.666 0v5.44a9.192 9.192 0 0 0-2.204.594l.061-.022L9.8 2.644a1.334 1.334 0 0 0-2.304 1.34l-.003-.007 2.728 4.711a9.487 9.487 0 0 0-1.517 1.514l-.015.019-4.707-2.729a1.333 1.333 0 1 0-1.34 2.305l.007.004 4.699 2.725a8.862 8.862 0 0 0-.566 2.093l-.006.05h-5.44a1.333 1.333 0 0 0 0 2.666h5.44c.115.801.315 1.523.594 2.204l-.022-.062-4.703 2.725a1.333 1.333 0 1 0 1.338 2.304l-.006.003 4.707-2.729a9.495 9.495 0 0 0 1.513 1.519l.019.015-2.724 4.708a1.333 1.333 0 0 0 2.305 1.339l.003-.006 2.725-4.703a8.95 8.95 0 0 0 2.092.569l.05.006v5.44a1.333 1.333 0 0 0 2.666 0v-5.44a9.286 9.286 0 0 0 2.204-.594l-.062.022 2.725 4.703a1.334 1.334 0 0 0 2.304-1.34l.003.007-2.728-4.708a9.487 9.487 0 0 0 1.517-1.514l.015-.019 4.707 2.729a1.333 1.333 0 1 0 1.339-2.305l-.007-.003-4.703-2.725c.258-.62.459-1.343.57-2.095l.006-.05h5.44a1.333 1.333 0 0 0 0-2.666zm-14.667 8c-8.811-.28-8.808-13.055 0-13.333 8.811.28 8.808 13.055 0 13.333z"/></symbol><symbol id="icon-moon" viewBox="0 0 32 32"><path d="M18.667 32c-8.833-.01-15.99-7.167-16-15.999V16C2.463 4.057 16.042-3.977 26.39 2.011l3.107 1.723-3.084 1.763c-3.423 2.01-5.684 5.673-5.684 9.863 0 4.57 2.689 8.512 6.571 10.33l.07.029 3.244 1.467-2.933 2.011a15.755 15.755 0 0 1-9.013 2.804zm0-28h-.034c-6.627 0-12 5.373-12 12s5.373 12 12 12c1.371 0 2.688-.23 3.915-.653l-.084.025c-7.155-5.363-7.724-17.027-1.089-23.067A11.542 11.542 0 0 0 18.704 4h-.039.002z"/></symbol><symbol id="icon-close" viewBox="0 0 32 32"><path stroke-width="2.133" d="m8.533 8.533 14.933 14.933m-14.933.001L23.466 8.534"/></symbol><symbol id="search" viewBox="0 0 32 32"><path fill="none" stroke="#fff" style="stroke:var(--color1,#fff)" stroke-linejoin="round" stroke-linecap="round" stroke-width="2.667" d="M14.667 25.333c5.891 0 10.667-4.776 10.667-10.667S20.558 3.999 14.667 3.999 4 8.775 4 14.666s4.776 10.667 10.667 10.667zM28 28.001l-5.8-5.8"/></symbol><symbol id="icon-arrow-prev" viewBox="0 0 24 24"><path d="M15.707 17.293 10.414 12l5.293-5.293a.999.999 0 1 0-1.414-1.414l-6 6a.999.999 0 0 0 0 1.414l6 6a.999.999 0 1 0 1.414-1.414z"/></symbol><symbol id="icon-arrow-next" viewBox="0 0 24 24"><path d="m9.707 18.707 6-6a.999.999 0 0 0 0-1.414l-6-6a.999.999 0 1 0-1.414 1.414L13.586 12l-5.293 5.293a.999.999 0 1 0 1.414 1.414z"/></symbol><symbol id="icon-dots" viewBox="0 0 32 32"><path d="M4.803 16a2.526 2.526 0 1 1-2.526-2.526A2.529 2.529 0 0 1 4.803 16zm24.421-2.526A2.526 2.526 0 1 0 31.75 16a2.529 2.529 0 0 0-2.526-2.526zm-13.474 0A2.526 2.526 0 1 0 18.276 16a2.529 2.529 0 0 0-2.526-2.526z"/></symbol><symbol id="icon-arrow-first" viewBox="0 0 24 24"><path d="M11.707 16.293 7.414 12l4.293-4.293a.999.999 0 1 0-1.414-1.414l-5 5a.999.999 0 0 0 0 1.414l5 5a.999.999 0 1 0 1.414-1.414zm7 0L14.414 12l4.293-4.293a.999.999 0 1 0-1.414-1.414l-5 5a.999.999 0 0 0 0 1.414l5 5a.999.999 0 1 0 1.414-1.414z"/></symbol><symbol id="icon-arrow-last" viewBox="0 0 24 24"><path d="m13.707 17.707 5-5a.999.999 0 0 0 0-1.414l-5-5a.999.999 0 1 0-1.414 1.414L16.586 12l-4.293 4.293a.999.999 0 1 0 1.414 1.414zm-7 0 5-5a.999.999 0 0 0 0-1.414l-5-5a.999.999 0 1 0-1.414 1.414L9.586 12l-4.293 4.293a.999.999 0 1 0 1.414 1.414z"/></symbol><symbol id="icon-arrow-up" viewBox="0 0 32 32"><path d="M13.472 28.449v2.992a.35.35 0 1 1-.702 0v-2.992a.35.35 0 1 1 .702 0zM27.284 11.464c0 .212-.08.424-.242.585l-3.367 3.367a.83.83 0 0 1-1.17 0l-3.318-3.318v9.444a.35.35 0 1 1-.702 0V11.25a.352.352 0 0 1 .6-.249l3.918 3.918a.125.125 0 0 0 .177 0l3.367-3.367a.125.125 0 0 0 0-.177L16.086.915a.124.124 0 0 0-.093-.034c-.053-.001-.09.004-.12.034L5.412 11.375c-.063.064-.065.113 0 .177l3.367 3.367a.125.125 0 0 0 .177 0l3.918-3.918a.351.351 0 0 1 .6.249v14.1a.35.35 0 1 1-.702 0V12.098l-3.318 3.318a.83.83 0 0 1-1.17 0l-3.367-3.367a.846.846 0 0 1 0-1.17L15.377.419a.817.817 0 0 1 .616-.239.799.799 0 0 1 .59.239l10.461 10.46a.822.822 0 0 1 .243.585zM19.187 24.464v2.914a.35.35 0 1 1-.702 0v-2.914a.35.35 0 1 1 .702 0z"/><path d="M16.329 17.203v12.022a.35.35 0 1 1-.702 0V17.203a.35.35 0 1 1 .702 0z"/></symbol><symbol id="icon-chevrons-up" viewBox="0 0 24 24"><path d="m17.707 10.293-5-5a.999.999 0 0 0-1.414 0l-5 5a.999.999 0 1 0 1.414 1.414L12 7.414l4.293 4.293a.999.999 0 1 0 1.414-1.414zm0 7-5-5a.999.999 0 0 0-1.414 0l-5 5a.999.999 0 1 0 1.414 1.414L12 14.414l4.293 4.293a.999.999 0 1 0 1.414-1.414z"/></symbol></defs></svg>