<svg aria-hidden="true" style="width:0;height:0;position:absolute;overflow:hidden" xmlns="http://www.w3.org/2000/svg"><defs><symbol id="icon-heart_footer" viewBox="0 0 34 32"><path fill="#ff6b08" style="fill:var(--color1,#ff6b08)" d="m17.231 31.705-2.412-2.412C5.859 21.367.001 16.025.001 9.478.001 4.136 4.136.001 9.478.001c2.929 0 5.858 1.378 7.754 3.618 1.895-2.24 4.825-3.618 7.754-3.618 5.342 0 9.477 4.135 9.477 9.477 0 6.548-5.858 11.889-14.818 19.815l-2.412 2.412z"/></symbol><symbol id="icon-github" viewBox="0 0 32 32"><path d="M14.2.125C7.262.925 1.65 6.162.3 13.1c-.287 1.463-.287 4.338 0 5.8.625 3.275 2.087 6 4.438 8.363 3.125 3.125 6.838 4.65 11.262 4.65s8.137-1.525 11.262-4.65c3.125-3.125 4.65-6.837 4.65-11.262s-1.525-8.137-4.65-11.262C24.925 2.414 22.137.914 19.024.327c-1.288-.25-3.588-.338-4.825-.2zm4.863 3.237c4.712 1.175 8.4 4.862 9.6 9.637.387 1.525.387 4.475 0 6-.762 3.025-2.637 5.813-5.087 7.563-.913.65-2.9 1.65-3.025 1.525-.05-.05-.137-.837-.188-1.75-.063-.9-.137-1.863-.175-2.125-.087-.587-.438-1.313-.8-1.637-.313-.275-.175-.45.363-.45.6 0 1.813-.375 2.813-.863 2.075-1.025 3.212-2.75 3.387-5.188.125-1.7-.262-2.912-1.375-4.412l-.575-.762V9.8c0-.613-.038-1.488-.087-1.963-.075-.8-.087-.838-.4-.838-.538 0-2.188.6-3.025 1.113l-.788.475-.563-.188c-.837-.275-5.1-.275-5.912 0-.55.188-.6.175-.938-.05-1-.675-2.713-1.35-3.45-1.35-.275 0-.35.1-.537.65-.238.725-.287 2.438-.075 2.975.1.287.037.4-.737 1.225-.6.637-.925 1.125-1.112 1.625-.888 2.35.463 5.7 2.925 7.287 1.025.675 2.375 1.15 4 1.425l.488.075-.412.25c-.213.137-.463.413-.537.625-.113.3-.275.413-.762.55-1.275.387-2.363.113-3.025-.75-1.075-1.387-1.65-1.813-2.487-1.813-.612 0-.563.225.225.9.487.425.8.837 1.138 1.525.813 1.65 1.675 2.137 3.625 2.063l1.075-.05v1.462c0 .813-.05 1.475-.1 1.475-.262 0-1.55-.512-2.463-.975-4.525-2.275-7.263-6.975-7.025-12.088.125-2.5.8-4.6 2.138-6.612 2.05-3.088 5.338-5.15 9.137-5.75.875-.138 3.762.038 4.75.288z"/></symbol><symbol id="icon-close" viewBox="0 0 32 32"><path d="m26.667 7.303-1.97-1.97-7.808 7.808-7.808-7.808-1.97 1.97 7.808 7.808-7.808 7.808 1.97 1.97 7.808-7.808 7.808 7.808 1.97-1.97-7.808-7.808 7.808-7.808z"/></symbol></defs></svg>