<svg aria-hidden="true" style="position: absolute; width: 0; height: 0; overflow: hidden;" version="1.1" xmlns="http://www.w3.org/2000/svg" xmlns:xlink="http://www.w3.org/1999/xlink">
<defs>
<symbol id="icon-sun" viewBox="0 0 32 32">
<path d="M30.667 14.667h-5.44c-0.115-0.801-0.315-1.523-0.594-2.204l0.022 0.062 4.703-2.725c0.421-0.23 0.701-0.669 0.701-1.174 0-0.736-0.597-1.333-1.333-1.333-0.26 0-0.502 0.074-0.707 0.203l0.006-0.003-4.707 2.729c-0.456-0.573-0.959-1.077-1.513-1.519l-0.019-0.015 2.728-4.708c0.1-0.183 0.159-0.4 0.159-0.632 0-0.736-0.597-1.333-1.333-1.333-0.477 0-0.895 0.25-1.131 0.626l-0.003 0.006-2.729 4.7c-0.62-0.257-1.342-0.457-2.093-0.566l-0.050-0.006v-5.44c0-0.736-0.597-1.333-1.333-1.333s-1.333 0.597-1.333 1.333v0 5.44c-0.801 0.115-1.523 0.315-2.204 0.594l0.061-0.022-2.725-4.703c-0.239-0.382-0.657-0.632-1.134-0.632-0.736 0-1.333 0.597-1.333 1.333 0 0.231 0.059 0.449 0.163 0.639l-0.003-0.007 2.728 4.711c-0.573 0.457-1.076 0.96-1.517 1.514l-0.015 0.019-4.707-2.729c-0.199-0.125-0.442-0.199-0.702-0.199-0.736 0-1.333 0.597-1.333 1.333 0 0.505 0.281 0.944 0.695 1.171l0.007 0.004 4.699 2.725c-0.257 0.62-0.457 1.341-0.566 2.093l-0.006 0.050h-5.44c-0.736 0-1.333 0.597-1.333 1.333s0.597 1.333 1.333 1.333v0h5.44c0.115 0.801 0.315 1.523 0.594 2.204l-0.022-0.062-4.703 2.725c-0.421 0.23-0.702 0.669-0.702 1.174 0 0.736 0.597 1.333 1.333 1.333 0.26 0 0.502-0.074 0.707-0.203l-0.006 0.003 4.707-2.729c0.456 0.573 0.959 1.077 1.513 1.519l0.019 0.015-2.724 4.708c-0.1 0.183-0.159 0.4-0.159 0.632 0 0.736 0.597 1.333 1.333 1.333 0.477 0 0.895-0.25 1.131-0.626l0.003-0.006 2.725-4.703c0.619 0.257 1.341 0.458 2.092 0.569l0.050 0.006v5.44c0 0.736 0.597 1.333 1.333 1.333s1.333-0.597 1.333-1.333v0-5.44c0.801-0.116 1.523-0.316 2.204-0.594l-0.062 0.022 2.725 4.703c0.239 0.382 0.657 0.632 1.134 0.632 0.736 0 1.333-0.597 1.333-1.333 0-0.231-0.059-0.449-0.163-0.639l0.003 0.007-2.728-4.708c0.573-0.457 1.076-0.96 1.517-1.514l0.015-0.019 4.707 2.729c0.199 0.125 0.442 0.199 0.701 0.199 0.736 0 1.333-0.597 1.333-1.333 0-0.505-0.281-0.944-0.695-1.171l-0.007-0.003-4.703-2.725c0.258-0.62 0.459-1.343 0.57-2.095l0.006-0.050h5.44c0.736 0 1.333-0.597 1.333-1.333s-0.597-1.333-1.333-1.333v0zM16 22.667c-8.811-0.28-8.808-13.055 0-13.333 8.811 0.28 8.808 13.055 0 13.333z"></path>
</symbol>
<symbol id="icon-moon" viewBox="0 0 32 32">
<path d="M18.667 32c-8.833-0.010-15.99-7.167-16-15.999v-0.001c-0.204-11.943 13.375-19.977 23.723-13.989l3.107 1.723-3.084 1.763c-3.423 2.010-5.684 5.673-5.684 9.863 0 4.57 2.689 8.512 6.571 10.33l0.070 0.029 3.244 1.467-2.933 2.011c-2.519 1.755-5.644 2.804-9.013 2.804h-0zM18.667 4c-0.010-0-0.022-0-0.034-0-6.627 0-12 5.373-12 12s5.373 12 12 12c1.371 0 2.688-0.23 3.915-0.653l-0.084 0.025c-7.155-5.363-7.724-17.027-1.089-23.067-0.802-0.194-1.724-0.305-2.671-0.305-0.013 0-0.026 0-0.039 0h0.002z"></path>
</symbol>
<symbol id="icon-close" viewBox="0 0 32 32">
<path stroke-width="2.1333" stroke-miterlimit="4" stroke-linecap="butt" stroke-linejoin="miter" d="M8.533 8.533l14.933 14.933M8.533 23.467l14.933-14.933"></path>
</symbol>
<symbol id="search" viewBox="0 0 32 32"><path fill="none" stroke="#fff" style="stroke:var(--color1, #fff)" stroke-linejoin="round" stroke-linecap="round" stroke-width="2.667" d="M14.667 25.333c5.891 0 10.667-4.776 10.667-10.667S20.558 3.999 14.667 3.999 4 8.775 4 14.666s4.776 10.667 10.667 10.667zM28 28.001l-5.8-5.8"/>
</symbol>
<symbol id="icon-arrow-prev" viewBox="0 0 24 24">
<path d="M15.707 17.293l-5.293-5.293 5.293-5.293c0.391-0.391 0.391-1.024 0-1.414s-1.024-0.391-1.414 0l-6 6c-0.391 0.391-0.391 1.024 0 1.414l6 6c0.391 0.391 1.024 0.391 1.414 0s0.391-1.024 0-1.414z"></path>
</symbol>
<symbol id="icon-arrow-next" viewBox="0 0 24 24">
<path d="M9.707 18.707l6-6c0.391-0.391 0.391-1.024 0-1.414l-6-6c-0.391-0.391-1.024-0.391-1.414 0s-0.391 1.024 0 1.414l5.293 5.293-5.293 5.293c-0.391 0.391-0.391 1.024 0 1.414s1.024 0.391 1.414 0z"></path>
</symbol>
<symbol id="icon-dots" viewBox="0 0 32 32">
<path d="M4.803 16c0 1.395-1.131 2.526-2.526 2.526s-2.526-1.131-2.526-2.526c0-1.395 1.131-2.526 2.526-2.526v0c1.395 0.002 2.525 1.132 2.526 2.526v0zM29.224 13.474c-1.395 0-2.526 1.131-2.526 2.526s1.131 2.526 2.526 2.526c1.395 0 2.526-1.131 2.526-2.526v0c-0.002-1.395-1.132-2.525-2.526-2.526h-0zM15.75 13.474c-1.395 0-2.526 1.131-2.526 2.526s1.131 2.526 2.526 2.526c1.395 0 2.526-1.131 2.526-2.526v0c-0.002-1.395-1.132-2.525-2.526-2.526h-0z"></path>
</symbol>
<symbol id="icon-arrow-first" viewBox="0 0 24 24">
<path d="M11.707 16.293l-4.293-4.293 4.293-4.293c0.391-0.391 0.391-1.024 0-1.414s-1.024-0.391-1.414 0l-5 5c-0.391 0.391-0.391 1.024 0 1.414l5 5c0.391 0.391 1.024 0.391 1.414 0s0.391-1.024 0-1.414zM18.707 16.293l-4.293-4.293 4.293-4.293c0.391-0.391 0.391-1.024 0-1.414s-1.024-0.391-1.414 0l-5 5c-0.391 0.391-0.391 1.024 0 1.414l5 5c0.391 0.391 1.024 0.391 1.414 0s0.391-1.024 0-1.414z"></path>
</symbol>
<symbol id="icon-arrow-last" viewBox="0 0 24 24">
<path d="M13.707 17.707l5-5c0.391-0.391 0.391-1.024 0-1.414l-5-5c-0.391-0.391-1.024-0.391-1.414 0s-0.391 1.024 0 1.414l4.293 4.293-4.293 4.293c-0.391 0.391-0.391 1.024 0 1.414s1.024 0.391 1.414 0zM6.707 17.707l5-5c0.391-0.391 0.391-1.024 0-1.414l-5-5c-0.391-0.391-1.024-0.391-1.414 0s-0.391 1.024 0 1.414l4.293 4.293-4.293 4.293c-0.391 0.391-0.391 1.024 0 1.414s1.024 0.391 1.414 0z"></path>
</symbol>
<symbol id="icon-arrow-up" viewBox="0 0 32 32">
<path d="M13.472 28.449v2.992c0 0.194-0.157 0.351-0.351 0.351s-0.351-0.157-0.351-0.351v-2.992c0-0.194 0.157-0.351 0.351-0.351s0.351 0.157 0.351 0.351z"></path>
<path d="M27.284 11.464c0 0.212-0.080 0.424-0.242 0.585l-3.367 3.367c-0.323 0.322-0.848 0.322-1.17 0l-3.318-3.318v9.444c0 0.194-0.157 0.351-0.351 0.351s-0.351-0.157-0.351-0.351v-10.292c0-0.142 0.085-0.27 0.217-0.325s0.282-0.024 0.383 0.076l3.918 3.918c0.049 0.049 0.128 0.049 0.177-0l3.367-3.367c0.049-0.049 0.049-0.128 0-0.177l-10.461-10.46c-0.029-0.029-0.067-0.035-0.093-0.034-0.053-0.001-0.090 0.004-0.12 0.034l-10.461 10.46c-0.063 0.064-0.065 0.113 0 0.177l3.367 3.367c0.049 0.049 0.128 0.049 0.177 0l3.918-3.918c0.1-0.1 0.252-0.131 0.383-0.076s0.217 0.183 0.217 0.325v14.1c0 0.194-0.157 0.351-0.351 0.351s-0.351-0.157-0.351-0.351v-13.252l-3.318 3.318c-0.323 0.322-0.848 0.322-1.17 0l-3.367-3.367c-0.313-0.313-0.313-0.858 0-1.17l10.46-10.46c0.163-0.163 0.382-0.248 0.616-0.239 0.208-0.009 0.427 0.076 0.59 0.239l10.461 10.46c0.162 0.161 0.243 0.373 0.243 0.585z"></path>
<path d="M19.187 24.464v2.914c0 0.194-0.157 0.351-0.351 0.351s-0.351-0.157-0.351-0.351v-2.914c0-0.194 0.157-0.351 0.351-0.351s0.351 0.157 0.351 0.351z"></path>
<path d="M16.329 17.203v12.022c0 0.194-0.157 0.351-0.351 0.351s-0.351-0.157-0.351-0.351v-12.022c0-0.194 0.157-0.351 0.351-0.351s0.351 0.157 0.351 0.351z"></path>
</symbol>
<symbol id="icon-chevrons-up" viewBox="0 0 24 24">
<path d="M17.707 10.293l-5-5c-0.391-0.391-1.024-0.391-1.414 0l-5 5c-0.391 0.391-0.391 1.024 0 1.414s1.024 0.391 1.414 0l4.293-4.293 4.293 4.293c0.391 0.391 1.024 0.391 1.414 0s0.391-1.024 0-1.414zM17.707 17.293l-5-5c-0.391-0.391-1.024-0.391-1.414 0l-5 5c-0.391 0.391-0.391 1.024 0 1.414s1.024 0.391 1.414 0l4.293-4.293 4.293 4.293c0.391 0.391 1.024 0.391 1.414 0s0.391-1.024 0-1.414z"></path>
</symbol>
</defs>
</svg>
