<svg aria-hidden="true" style="position: absolute; width: 0; height: 0; overflow: hidden;" version="1.1" xmlns="http://www.w3.org/2000/svg" xmlns:xlink="http://www.w3.org/1999/xlink">
<defs>
<symbol id="icon-heart_footer" viewBox="0 0 34 32">
<path fill="#ff6b08" style="fill: var(--color1, #ff6b08)" d="M17.231 31.705l-2.412-2.412c-8.96-7.926-14.818-13.268-14.818-19.815 0-5.342 4.135-9.477 9.477-9.477 2.929 0 5.858 1.378 7.754 3.618 1.895-2.24 4.825-3.618 7.754-3.618 5.342 0 9.477 4.135 9.477 9.477 0 6.548-5.858 11.889-14.818 19.815l-2.412 2.412z"></path>
</symbol>
<symbol id="icon-github" viewBox="0 0 32 32">
<path d="M14.9 0.375c-6.325 0.431-11.819 4.612-13.969 10.644-0.331 0.912-0.637 2.181-0.781 3.2-0.144 0.981-0.156 3.1-0.031 4.094 0.637 5.1 3.594 9.538 8.044 12.075 1.025 0.587 2.612 1.25 3.019 1.262 0.319 0.006 0.588-0.125 0.725-0.356 0.113-0.188 0.119-0.313 0.1-1.669-0.006-0.806-0.019-1.475-0.025-1.475-0.006-0.006-0.238 0.025-0.512 0.075-1.644 0.269-3.106-0.1-4.037-1.031-0.362-0.363-0.475-0.538-0.838-1.288-0.588-1.225-0.931-1.694-1.594-2.175-0.487-0.35-0.75-0.613-0.75-0.744 0-0.313 0.756-0.419 1.356-0.188 0.781 0.294 1.3 0.744 1.869 1.613 0.787 1.194 1.775 1.725 3.031 1.631 0.481-0.038 1.456-0.306 1.531-0.425 0.019-0.038 0.081-0.238 0.125-0.444 0.119-0.5 0.425-1.131 0.688-1.425 0.25-0.281 0.275-0.262-0.537-0.375-0.644-0.087-1.762-0.375-2.3-0.587-2.263-0.894-3.569-2.563-4.056-5.181-0.156-0.837-0.156-2.894 0-3.544 0.225-0.931 0.644-1.781 1.219-2.488l0.269-0.331-0.094-0.294c-0.325-1.006-0.287-2.313 0.1-3.525 0.125-0.381 0.15-0.419 0.338-0.456 0.669-0.125 2.2 0.425 3.6 1.288l0.613 0.381 0.544-0.125c1.275-0.294 1.863-0.356 3.456-0.356 1.6 0 2.181 0.063 3.456 0.356l0.55 0.125 0.481-0.3c0.956-0.6 1.9-1.044 2.544-1.206 0.531-0.131 0.994-0.194 1.194-0.156 0.175 0.031 0.206 0.075 0.325 0.45 0.356 1.113 0.419 2.525 0.144 3.388l-0.131 0.406 0.125 0.156c0.613 0.756 1.094 1.681 1.325 2.556 0.163 0.613 0.225 2.175 0.119 3.050-0.462 3.8-2.544 5.844-6.506 6.394-0.75 0.1-0.738 0.094-0.519 0.331 0.288 0.3 0.563 0.837 0.719 1.394 0.125 0.462 0.137 0.663 0.169 3.306 0.044 3.075 0.031 3.012 0.413 3.169 0.294 0.125 0.637 0.081 1.25-0.163 2.175-0.844 3.887-1.944 5.525-3.556 2.606-2.563 4.244-5.887 4.7-9.544 0.125-0.994 0.113-3.113-0.031-4.094-1.081-7.619-7.194-13.319-14.831-13.844-1.006-0.069-1.094-0.069-2.119 0z"></path>
</symbol>
<symbol id="icon-close" viewBox="0 0 32 32">
<path d="M26.667 7.303l-1.97-1.97-7.808 7.808-7.808-7.808-1.97 1.97 7.808 7.808-7.808 7.808 1.97 1.97 7.808-7.808 7.808 7.808 1.97-1.97-7.808-7.808 7.808-7.808z"></path>
</symbol>
</defs>
</svg>
