<svg aria-hidden="true" style="position: absolute; width: 0; height: 0; overflow: hidden;" version="1.1" xmlns="http://www.w3.org/2000/svg" xmlns:xlink="http://www.w3.org/1999/xlink">
<defs>
<symbol id="icon-heart_footer" viewBox="0 0 34 32">
<path fill="#ff6b08" style="fill: var(--color1, #ff6b08)" d="M17.231 31.705l-2.412-2.412c-8.96-7.926-14.818-13.268-14.818-19.815 0-5.342 4.135-9.477 9.477-9.477 2.929 0 5.858 1.378 7.754 3.618 1.895-2.24 4.825-3.618 7.754-3.618 5.342 0 9.477 4.135 9.477 9.477 0 6.548-5.858 11.889-14.818 19.815l-2.412 2.412z"></path>
</symbol>
<symbol id="icon-github" viewBox="0 0 32 32">
<path d="M14.2 0.125c-6.938 0.8-12.55 6.037-13.9 12.975-0.287 1.463-0.287 4.338 0 5.8 0.625 3.275 2.087 6 4.438 8.363 3.125 3.125 6.838 4.65 11.262 4.65s8.137-1.525 11.262-4.65c3.125-3.125 4.65-6.837 4.65-11.262s-1.525-8.137-4.65-11.262c-2.337-2.325-5.125-3.825-8.238-4.412-1.288-0.25-3.588-0.338-4.825-0.2zM19.063 3.362c4.712 1.175 8.4 4.862 9.6 9.637 0.387 1.525 0.387 4.475 0 6-0.762 3.025-2.637 5.813-5.087 7.563-0.913 0.65-2.9 1.65-3.025 1.525-0.050-0.050-0.137-0.837-0.188-1.75-0.063-0.9-0.137-1.863-0.175-2.125-0.087-0.587-0.438-1.313-0.8-1.637-0.313-0.275-0.175-0.45 0.363-0.45 0.6 0 1.813-0.375 2.813-0.863 2.075-1.025 3.212-2.75 3.387-5.188 0.125-1.7-0.262-2.912-1.375-4.412l-0.575-0.762v-1.1c0-0.613-0.038-1.488-0.087-1.963-0.075-0.8-0.087-0.838-0.4-0.838-0.538 0-2.188 0.6-3.025 1.113l-0.788 0.475-0.563-0.188c-0.837-0.275-5.1-0.275-5.912 0-0.55 0.188-0.6 0.175-0.938-0.050-1-0.675-2.713-1.35-3.45-1.35-0.275 0-0.35 0.1-0.537 0.65-0.238 0.725-0.287 2.438-0.075 2.975 0.1 0.287 0.037 0.4-0.737 1.225-0.6 0.637-0.925 1.125-1.112 1.625-0.888 2.35 0.463 5.7 2.925 7.287 1.025 0.675 2.375 1.15 4 1.425l0.488 0.075-0.412 0.25c-0.213 0.137-0.463 0.413-0.537 0.625-0.113 0.3-0.275 0.413-0.762 0.55-1.275 0.387-2.363 0.113-3.025-0.75-1.075-1.387-1.65-1.813-2.487-1.813-0.612 0-0.563 0.225 0.225 0.9 0.487 0.425 0.8 0.837 1.138 1.525 0.813 1.65 1.675 2.137 3.625 2.063l1.075-0.050v1.462c0 0.813-0.050 1.475-0.1 1.475-0.262 0-1.55-0.512-2.463-0.975-4.525-2.275-7.263-6.975-7.025-12.088 0.125-2.5 0.8-4.6 2.138-6.612 2.050-3.088 5.338-5.15 9.137-5.75 0.875-0.138 3.762 0.038 4.75 0.288z"></path>
</symbol>
<symbol id="icon-close" viewBox="0 0 32 32">
<path d="M26.667 7.303l-1.97-1.97-7.808 7.808-7.808-7.808-1.97 1.97 7.808 7.808-7.808 7.808 1.97 1.97 7.808-7.808 7.808 7.808 1.97-1.97-7.808-7.808 7.808-7.808z"></path>
</symbol>
</defs>
</svg>
